<?xml version="1.0" encoding="UTF-8"?>
<!DOCTYPE svg PUBLIC "-//W3C//DTD SVG 1.1//EN" "http://www.w3.org/Graphics/SVG/1.1/DTD/svg11.dtd">
<svg version="1.2" xmlns="http://www.w3.org/2000/svg" xmlns:xlink="http://www.w3.org/1999/xlink" x="279mm" y="179mm" width="1902mm" height="1174mm" viewBox="279 179 1902 1174">
<style type="text/css"><![CDATA[
text { font:12px Dialog; }
]]></style>
<line x1="390" y1="1010" x2="390" y2="980" style="fill:none;stroke:rgb(64,64,64);stroke-linecap:square" />
<line x1="390" y1="980" x2="560" y2="980" style="fill:none;stroke:rgb(64,64,64);stroke-linecap:square" />
<line x1="560" y1="980" x2="560" y2="940" style="fill:none;stroke:rgb(64,64,64);stroke-linecap:square" />
<polygon points="560,940 568,960 552,960" style="fill:rgb(255,255,255);stroke:none" />
<polygon points="560,940 568,960 552,960" style="fill:none;stroke:rgb(64,64,64);stroke-linecap:square" />
<line x1="680" y1="1010" x2="680" y2="980" style="fill:none;stroke:rgb(64,64,64);stroke-linecap:square" />
<line x1="680" y1="980" x2="560" y2="980" style="fill:none;stroke:rgb(64,64,64);stroke-linecap:square" />
<line x1="560" y1="980" x2="560" y2="940" style="fill:none;stroke:rgb(64,64,64);stroke-linecap:square" />
<polygon points="560,940 568,960 552,960" style="fill:rgb(255,255,255);stroke:none" />
<polygon points="560,940 568,960 552,960" style="fill:none;stroke:rgb(64,64,64);stroke-linecap:square" />
<line x1="380" y1="1170" x2="380" y2="1110" style="fill:none;stroke:rgb(64,64,64);stroke-linecap:square" />
<polygon points="380,1110 388,1130 372,1130" style="fill:rgb(255,255,255);stroke:none" />
<polygon points="380,1110 388,1130 372,1130" style="fill:none;stroke:rgb(64,64,64);stroke-linecap:square" />
<line x1="660" y1="1170" x2="660" y2="1125" style="fill:none;stroke:rgb(64,64,64);stroke-linecap:square" />
<polygon points="660,1125 668,1145 652,1145" style="fill:rgb(255,255,255);stroke:none" />
<polygon points="660,1125 668,1145 652,1145" style="fill:none;stroke:rgb(64,64,64);stroke-linecap:square" />
<line x1="900" y1="1130" x2="900" y2="1070" style="fill:none;stroke:rgb(64,64,64);stroke-linecap:square" />
<polygon points="900,1070 908,1090 892,1090" style="fill:rgb(255,255,255);stroke:none" />
<polygon points="900,1070 908,1090 892,1090" style="fill:none;stroke:rgb(64,64,64);stroke-linecap:square" />
<line x1="500" y1="1040" x2="550" y2="1040" style="fill:none;stroke:rgb(64,64,64);stroke-dasharray:7;stroke-dashoffset:0" />
<line x1="550" y1="1040" x2="550" y2="1270" style="fill:none;stroke:rgb(64,64,64);stroke-dasharray:7;stroke-dashoffset:0" />
<line x1="550" y1="1270" x2="790" y2="1270" style="fill:none;stroke:rgb(64,64,64);stroke-dasharray:7;stroke-dashoffset:0" />
<line x1="790" y1="1270" x2="790" y2="1020" style="fill:none;stroke:rgb(64,64,64);stroke-dasharray:7;stroke-dashoffset:0" />
<line x1="790" y1="1020" x2="830" y2="1020" style="fill:none;stroke:rgb(64,64,64);stroke-dasharray:7;stroke-dashoffset:0" />
<polyline points="810,1028 830,1020 810,1012" style="fill:none;stroke:rgb(64,64,64);stroke-linecap:square" />
<line x1="450" y1="1240" x2="450" y2="1310" style="fill:none;stroke:rgb(64,64,64);stroke-dasharray:7;stroke-dashoffset:0" />
<line x1="450" y1="1310" x2="920" y2="1310" style="fill:none;stroke:rgb(64,64,64);stroke-dasharray:7;stroke-dashoffset:0" />
<line x1="920" y1="1310" x2="920" y2="1200" style="fill:none;stroke:rgb(64,64,64);stroke-dasharray:7;stroke-dashoffset:0" />
<polyline points="928,1220 920,1200 912,1220" style="fill:none;stroke:rgb(64,64,64);stroke-linecap:square" />
<path d="M670,1276 C673.3137085,1276 676,1273.3137085 676,1270 C676,1266.6862915 673.3137085,1264 670,1264" style="fill:none;stroke:rgb(64,64,64);stroke-dasharray:7;stroke-dashoffset:0" />
<line x1="670" y1="1240" x2="670" y2="1264" style="fill:none;stroke:rgb(64,64,64);stroke-dasharray:7;stroke-dashoffset:0" />
<line x1="670" y1="1276" x2="670" y2="1290" style="fill:none;stroke:rgb(64,64,64);stroke-dasharray:7;stroke-dashoffset:0" />
<path d="M926,1290 C926,1286.6862915 923.3137085,1284 920,1284 C916.6862915,1284 914,1286.6862915 914,1290" style="fill:none;stroke:rgb(64,64,64);stroke-dasharray:7;stroke-dashoffset:0" />
<line x1="670" y1="1290" x2="914" y2="1290" style="fill:none;stroke:rgb(64,64,64);stroke-dasharray:7;stroke-dashoffset:0" />
<line x1="926" y1="1290" x2="1260" y2="1290" style="fill:none;stroke:rgb(64,64,64);stroke-dasharray:7;stroke-dashoffset:0" />
<line x1="1260" y1="1290" x2="1260" y2="1200" style="fill:none;stroke:rgb(64,64,64);stroke-dasharray:7;stroke-dashoffset:0" />
<polyline points="1268,1220 1260,1200 1252,1220" style="fill:none;stroke:rgb(64,64,64);stroke-linecap:square" />
<line x1="910" y1="1000" x2="910" y2="990" style="fill:none;stroke:rgb(64,64,64);stroke-dasharray:7;stroke-dashoffset:0" />
<line x1="910" y1="990" x2="1020" y2="990" style="fill:none;stroke:rgb(64,64,64);stroke-dasharray:7;stroke-dashoffset:0" />
<line x1="1020" y1="990" x2="1020" y2="944" style="fill:none;stroke:rgb(64,64,64);stroke-dasharray:7;stroke-dashoffset:0" />
<polygon points="1020,944 1028,964 1012,964" style="fill:rgb(255,255,255);stroke:none" />
<polygon points="1020,944 1028,964 1012,964" style="fill:none;stroke:rgb(64,64,64);stroke-linecap:square" />
<line x1="1260" y1="1130" x2="1260" y2="1070" style="fill:none;stroke:rgb(64,64,64);stroke-linecap:square" />
<polygon points="1260,1070 1268,1090 1252,1090" style="fill:rgb(255,255,255);stroke:none" />
<polygon points="1260,1070 1268,1090 1252,1090" style="fill:none;stroke:rgb(64,64,64);stroke-linecap:square" />
<path d="M796,1110 C796,1106.6862915 793.3137085,1104 790,1104 C786.6862915,1104 784,1106.6862915 784,1110" style="fill:none;stroke:rgb(64,64,64);stroke-dasharray:7;stroke-dashoffset:0" />
<line x1="770" y1="1110" x2="784" y2="1110" style="fill:none;stroke:rgb(64,64,64);stroke-dasharray:7;stroke-dashoffset:0" />
<line x1="796" y1="1110" x2="1230" y2="1110" style="fill:none;stroke:rgb(64,64,64);stroke-dasharray:7;stroke-dashoffset:0" />
<line x1="1230" y1="1110" x2="1230" y2="1070" style="fill:none;stroke:rgb(64,64,64);stroke-dasharray:7;stroke-dashoffset:0" />
<polyline points="1238,1090 1230,1070 1222,1090" style="fill:none;stroke:rgb(64,64,64);stroke-linecap:square" />
<line x1="1260" y1="1000" x2="1260" y2="990" style="fill:none;stroke:rgb(64,64,64);stroke-dasharray:7;stroke-dashoffset:0" />
<line x1="1260" y1="990" x2="1020" y2="990" style="fill:none;stroke:rgb(64,64,64);stroke-dasharray:7;stroke-dashoffset:0" />
<line x1="1020" y1="990" x2="1020" y2="944" style="fill:none;stroke:rgb(64,64,64);stroke-dasharray:7;stroke-dashoffset:0" />
<polygon points="1020,944 1028,964 1012,964" style="fill:rgb(255,255,255);stroke:none" />
<polygon points="1020,944 1028,964 1012,964" style="fill:none;stroke:rgb(64,64,64);stroke-linecap:square" />
<line x1="570" y1="660" x2="570" y2="599" style="fill:none;stroke:rgb(64,64,64);stroke-dasharray:7;stroke-dashoffset:0" />
<polygon points="570,599 578,619 562,619" style="fill:rgb(255,255,255);stroke:none" />
<polygon points="570,599 578,619 562,619" style="fill:none;stroke:rgb(64,64,64);stroke-linecap:square" />
<line x1="1090" y1="620" x2="1090" y2="569" style="fill:none;stroke:rgb(64,64,64);stroke-dasharray:7;stroke-dashoffset:0" />
<polygon points="1090,569 1098,589 1082,589" style="fill:rgb(255,255,255);stroke:none" />
<polygon points="1090,569 1098,589 1082,589" style="fill:none;stroke:rgb(64,64,64);stroke-linecap:square" />
<line x1="610" y1="470" x2="710" y2="395" style="fill:none;stroke:rgb(64,64,64);stroke-linecap:square" />
<polyline points="621,452 610,470 631,464" style="fill:none;stroke:rgb(64,64,64);stroke-linecap:square" />
<line x1="910" y1="390" x2="970" y2="410" style="fill:none;stroke:rgb(64,64,64);stroke-linecap:square" />
<polyline points="948,411 970,410 954,395" style="fill:none;stroke:rgb(64,64,64);stroke-linecap:square" />
<line x1="2010" y1="410" x2="2010" y2="289" style="fill:none;stroke:rgb(64,64,64);stroke-dasharray:7;stroke-dashoffset:0" />
<polygon points="2010,289 2018,309 2002,309" style="fill:rgb(255,255,255);stroke:none" />
<polygon points="2010,289 2018,309 2002,309" style="fill:none;stroke:rgb(64,64,64);stroke-linecap:square" />
<line x1="1860" y1="640" x2="1230" y2="900" style="fill:none;stroke:rgb(64,64,64);stroke-linecap:square" />
<polyline points="1244,885 1230,900 1252,899" style="fill:none;stroke:rgb(64,64,64);stroke-linecap:square" />
<line x1="1670" y1="450" x2="1860" y2="450" style="fill:none;stroke:rgb(64,64,64);stroke-linecap:square" />
<polyline points="1840,458 1860,450 1840,442" style="fill:none;stroke:rgb(64,64,64);stroke-linecap:square" />
<line x1="1210" y1="450" x2="1400" y2="450" style="fill:none;stroke:rgb(64,64,64);stroke-linecap:square" />
<polyline points="1380,458 1400,450 1380,442" style="fill:none;stroke:rgb(64,64,64);stroke-linecap:square" />
<line x1="1500" y1="420" x2="1500" y2="329" style="fill:none;stroke:rgb(64,64,64);stroke-dasharray:7;stroke-dashoffset:0" />
<polygon points="1500,329 1508,349 1492,349" style="fill:rgb(255,255,255);stroke:none" />
<polygon points="1500,329 1508,349 1492,349" style="fill:none;stroke:rgb(64,64,64);stroke-linecap:square" />
<rect x="680" y="220" width="230" height="168" style="fill:rgb(255,247,225);stroke:none" />
<rect x="680" y="220" width="230" height="168" style="fill:none;stroke:rgb(65,65,65);stroke-width:1.2;stroke-linecap:square" />
<text x="780" y="243" style="font:12px Ubuntu">Main</text>
<line x1="680" y1="255" x2="910" y2="255" style="fill:none;stroke:rgb(65,65,65);stroke-width:1.2;stroke-linecap:square" />
<text x="688" y="270" style="font:12px Ubuntu">- UPDATE_RATE : int {const}</text>
<text x="688" y="284" style="font:12px Ubuntu">- WIDTH : int {const}</text>
<text x="688" y="298" style="font:12px Ubuntu">- HEIGHT : int {const}</text>
<text x="688" y="312" style="font:12px Ubuntu">- MIN_SIZE : int {const}</text>
<text x="688" y="326" style="font:12px Ubuntu">- MAX_SIZE : int {const}</text>
<text x="688" y="340" style="font:12px Ubuntu">- NB_SHAPE : int {const}</text>
<line x1="680" y1="349" x2="910" y2="349" style="fill:none;stroke:rgb(65,65,65);stroke-width:1.2;stroke-linecap:square" />
<text x="688" y="364" style="font:12px Ubuntu">+ Run () : void</text>
<text x="688" y="378" style="font:12px Ubuntu">+ main (args : String[]) : void</text>
<rect x="830" y="1000" width="270" height="69" style="fill:rgb(255,247,225);stroke:none" />
<rect x="830" y="1000" width="270" height="69" style="fill:none;stroke:rgb(65,65,65);stroke-width:1.2;stroke-linecap:square" />
<text x="919" y="1023" style="font:12px Ubuntu">RendererCircle</text>
<line x1="830" y1="1035" x2="1100" y2="1035" style="fill:none;stroke:rgb(65,65,65);stroke-width:1.2;stroke-linecap:square" />
<line x1="830" y1="1045" x2="1100" y2="1045" style="fill:none;stroke:rgb(65,65,65);stroke-width:1.2;stroke-linecap:square" />
<text x="838" y="1060" style="font:12px Ubuntu">+ display (g : Graphics2D, b : Boucable) : void</text>
<rect x="310" y="1170" width="190" height="69" style="fill:rgb(255,247,225);stroke:none" />
<rect x="310" y="1170" width="190" height="69" style="fill:none;stroke:rgb(65,65,65);stroke-width:1.2;stroke-linecap:square" />
<text x="367" y="1193" style="font:12px Ubuntu">CircleBorder</text>
<line x1="310" y1="1205" x2="500" y2="1205" style="fill:none;stroke:rgb(65,65,65);stroke-width:1.2;stroke-linecap:square" />
<line x1="310" y1="1215" x2="500" y2="1215" style="fill:none;stroke:rgb(65,65,65);stroke-width:1.2;stroke-linecap:square" />
<text x="318" y="1230" style="font:12px Ubuntu">+ getRenderer () : Renderer</text>
<rect x="570" y="1170" width="200" height="69" style="fill:rgb(255,247,225);stroke:none" />
<rect x="570" y="1170" width="200" height="69" style="fill:none;stroke:rgb(65,65,65);stroke-width:1.2;stroke-linecap:square" />
<text x="628" y="1193" style="font:12px Ubuntu">SquareBorder</text>
<line x1="570" y1="1205" x2="770" y2="1205" style="fill:none;stroke:rgb(65,65,65);stroke-width:1.2;stroke-linecap:square" />
<line x1="570" y1="1215" x2="770" y2="1215" style="fill:none;stroke:rgb(65,65,65);stroke-width:1.2;stroke-linecap:square" />
<text x="578" y="1230" style="font:12px Ubuntu">+ getRenderer () : Renderer</text>
<rect x="310" y="1010" width="190" height="97" style="fill:rgb(255,247,225);stroke:none" />
<rect x="310" y="1010" width="190" height="97" style="fill:none;stroke:rgb(65,65,65);stroke-width:1.2;stroke-linecap:square" />
<text x="387" y="1033" style="font:12px Ubuntu">Circle</text>
<line x1="310" y1="1045" x2="500" y2="1045" style="fill:none;stroke:rgb(65,65,65);stroke-width:1.2;stroke-linecap:square" />
<text x="318" y="1060" style="font:12px Ubuntu">- radius : int</text>
<line x1="310" y1="1069" x2="500" y2="1069" style="fill:none;stroke:rgb(65,65,65);stroke-width:1.2;stroke-linecap:square" />
<text x="318" y="1084" style="font:12px Ubuntu">+ getBounceVector () : Vecto...</text>
<text x="318" y="1098" style="font:12px Ubuntu">+ getRenderer () : Renderer</text>
<rect x="420" y="660" width="270" height="265" style="fill:rgb(255,247,225);stroke:none" />
<rect x="420" y="660" width="270" height="265" style="fill:none;stroke:rgb(65,65,65);stroke-width:1.2;stroke-linecap:square" />
<text x="536" y="683" style="font:12px Ubuntu">Shape</text>
<line x1="420" y1="695" x2="690" y2="695" style="fill:none;stroke:rgb(65,65,65);stroke-width:1.2;stroke-linecap:square" />
<text x="428" y="710" style="font:12px Ubuntu">- _position : Vector2f</text>
<text x="428" y="724" style="font:12px Ubuntu">- _direction : Vector2f</text>
<text x="428" y="738" style="font:12px Ubuntu">- _color : Color</text>
<line x1="420" y1="747" x2="690" y2="747" style="fill:none;stroke:rgb(65,65,65);stroke-width:1.2;stroke-linecap:square" />
<text x="428" y="762" style="font:12px Ubuntu">+ getX () : float</text>
<text x="428" y="776" style="font:12px Ubuntu">+ getY () : float</text>
<text x="428" y="790" style="font:12px Ubuntu">+ getRenderShape () : Renderer</text>
<text x="428" y="804" style="font:12px Ubuntu">+ getPosition () : Vector2f</text>
<text x="428" y="818" style="font:12px Ubuntu">+ getDirection () : Vector2f</text>
<text x="428" y="832" style="font:12px Ubuntu">+ setPosition (vector : Vector2f) : void</text>
<text x="428" y="846" style="font:12px Ubuntu">+ setDirection (d : Vector2f) : void</text>
<text x="428" y="860" style="font:12px Ubuntu">+ getBounceVector () : Vector2f</text>
<text x="428" y="874" style="font:12px Ubuntu">+ move () : void</text>
<text x="428" y="888" style="font:12px Ubuntu">+ getColor () : Color</text>
<text x="428" y="902" style="font:12px Ubuntu">+ draw () : void</text>
<text x="428" y="916" style="font:12px Ubuntu">+ getShape () : Shape</text>
<rect x="570" y="1010" width="200" height="111" style="fill:rgb(255,247,225);stroke:none" />
<rect x="570" y="1010" width="200" height="111" style="fill:none;stroke:rgb(65,65,65);stroke-width:1.2;stroke-linecap:square" />
<text x="649" y="1033" style="font:12px Ubuntu">Square</text>
<line x1="570" y1="1045" x2="770" y2="1045" style="fill:none;stroke:rgb(65,65,65);stroke-width:1.2;stroke-linecap:square" />
<text x="578" y="1060" style="font:12px Ubuntu">- height : int</text>
<text x="578" y="1074" style="font:12px Ubuntu">- witdh : int</text>
<line x1="570" y1="1083" x2="770" y2="1083" style="fill:none;stroke:rgb(65,65,65);stroke-width:1.2;stroke-linecap:square" />
<text x="578" y="1098" style="font:12px Ubuntu">+ getBounceVector () : Vector2f</text>
<text x="578" y="1112" style="font:12px Ubuntu">+ getRenderShape: () : Renderer</text>
<rect x="490" y="470" width="150" height="125" style="fill:rgb(255,247,225);stroke:none" />
<rect x="490" y="470" width="150" height="125" style="fill:none;stroke:rgb(65,65,65);stroke-width:1.2;stroke-linecap:square" />
<text x="527" y="489" style="font:11px Ubuntu">&lt;&lt; interface &gt;&gt;</text>
<text x="533" y="507" style="font:12px Ubuntu">Bouncable</text>
<line x1="490" y1="519" x2="640" y2="519" style="fill:none;stroke:rgb(65,65,65);stroke-width:1.2;stroke-linecap:square" />
<line x1="490" y1="529" x2="640" y2="529" style="fill:none;stroke:rgb(65,65,65);stroke-width:1.2;stroke-linecap:square" />
<text x="498" y="544" style="font:12px Ubuntu">+ draw () : void</text>
<text x="498" y="558" style="font:12px Ubuntu">+ move () : void</text>
<text x="498" y="572" style="font:12px Ubuntu">+ getColor () : Color</text>
<text x="498" y="586" style="font:12px Ubuntu">+ getShape () : Shape</text>
<rect x="940" y="860" width="290" height="83" style="fill:rgb(255,247,225);stroke:none" />
<rect x="940" y="860" width="290" height="83" style="fill:none;stroke:rgb(65,65,65);stroke-width:1.2;stroke-linecap:square" />
<text x="1047" y="879" style="font:11px Ubuntu">&lt;&lt; interface &gt;&gt;</text>
<text x="1057" y="897" style="font:12px Ubuntu">Renderer</text>
<line x1="940" y1="909" x2="1230" y2="909" style="fill:none;stroke:rgb(65,65,65);stroke-width:1.2;stroke-linecap:square" />
<line x1="940" y1="919" x2="1230" y2="919" style="fill:none;stroke:rgb(65,65,65);stroke-width:1.2;stroke-linecap:square" />
<text x="948" y="934" style="font:12px Ubuntu">+ display (g : Graphics2D, b : Boucable) : void</text>
<rect x="830" y="1130" width="270" height="69" style="fill:rgb(255,247,225);stroke:none" />
<rect x="830" y="1130" width="270" height="69" style="fill:none;stroke:rgb(65,65,65);stroke-width:1.2;stroke-linecap:square" />
<text x="899" y="1153" style="font:12px Ubuntu">RendererCircleBorder</text>
<line x1="830" y1="1165" x2="1100" y2="1165" style="fill:none;stroke:rgb(65,65,65);stroke-width:1.2;stroke-linecap:square" />
<line x1="830" y1="1175" x2="1100" y2="1175" style="fill:none;stroke:rgb(65,65,65);stroke-width:1.2;stroke-linecap:square" />
<text x="838" y="1190" style="font:12px Ubuntu">+ display (g : Graphics2D, b : Bouncable) : void</text>
<rect x="1180" y="1130" width="290" height="69" style="fill:rgb(255,247,225);stroke:none" />
<rect x="1180" y="1130" width="290" height="69" style="fill:none;stroke:rgb(65,65,65);stroke-width:1.2;stroke-linecap:square" />
<text x="1255" y="1153" style="font:12px Ubuntu">RendererSquareBorder</text>
<line x1="1180" y1="1165" x2="1470" y2="1165" style="fill:none;stroke:rgb(65,65,65);stroke-width:1.2;stroke-linecap:square" />
<line x1="1180" y1="1175" x2="1470" y2="1175" style="fill:none;stroke:rgb(65,65,65);stroke-width:1.2;stroke-linecap:square" />
<text x="1188" y="1190" style="font:12px Ubuntu">+ display (g : Graphics2D, b : bouncable) : void</text>
<rect x="1180" y="1000" width="290" height="69" style="fill:rgb(255,247,225);stroke:none" />
<rect x="1180" y="1000" width="290" height="69" style="fill:none;stroke:rgb(65,65,65);stroke-width:1.2;stroke-linecap:square" />
<text x="1276" y="1023" style="font:12px Ubuntu">RendererSquare</text>
<line x1="1180" y1="1035" x2="1470" y2="1035" style="fill:none;stroke:rgb(65,65,65);stroke-width:1.2;stroke-linecap:square" />
<line x1="1180" y1="1045" x2="1470" y2="1045" style="fill:none;stroke:rgb(65,65,65);stroke-width:1.2;stroke-linecap:square" />
<text x="1188" y="1060" style="font:12px Ubuntu">+ display (g : Graphics2D, b : Bouncable) : void</text>
<rect x="970" y="410" width="240" height="153" style="fill:rgb(255,247,225);stroke:none" />
<rect x="970" y="410" width="240" height="153" style="fill:none;stroke:rgb(65,65,65);stroke-width:1.2;stroke-linecap:square" />
<text x="1052" y="429" style="font:11px Ubuntu">&lt;&lt; interface &gt;&gt;</text>
<text x="1061" y="447" style="font:12px Ubuntu">Displayer</text>
<line x1="970" y1="459" x2="1210" y2="459" style="fill:none;stroke:rgb(65,65,65);stroke-width:1.2;stroke-linecap:square" />
<line x1="970" y1="469" x2="1210" y2="469" style="fill:none;stroke:rgb(65,65,65);stroke-width:1.2;stroke-linecap:square" />
<text x="978" y="484" style="font:12px Ubuntu">+ getWidth () : int</text>
<text x="978" y="498" style="font:12px Ubuntu">+ getHeight () : int</text>
<text x="978" y="512" style="font:12px Ubuntu">+ getGraphics () : Graphics2d</text>
<text x="978" y="526" style="font:12px Ubuntu">+ repaint () : void</text>
<text x="978" y="540" style="font:12px Ubuntu">+ setTitle (s : string) : void</text>
<text x="978" y="554" style="font:12px Ubuntu">+ addKeyListener (k : keyAdapter) : void</text>
<rect x="970" y="620" width="240" height="195" style="fill:rgb(255,247,225);stroke:none" />
<rect x="970" y="620" width="240" height="195" style="fill:none;stroke:rgb(65,65,65);stroke-width:1.2;stroke-linecap:square" />
<text x="1066" y="643" style="font:12px Ubuntu">Window</text>
<line x1="970" y1="655" x2="1210" y2="655" style="fill:none;stroke:rgb(65,65,65);stroke-width:1.2;stroke-linecap:square" />
<text x="978" y="670" style="font:12px Ubuntu">- instance : Window</text>
<line x1="970" y1="679" x2="1210" y2="679" style="fill:none;stroke:rgb(65,65,65);stroke-width:1.2;stroke-linecap:square" />
<text x="978" y="694" style="font:12px Ubuntu">+ getWidth () : int</text>
<text x="978" y="708" style="font:12px Ubuntu">+ getHeight () : int</text>
<text x="978" y="722" style="font:12px Ubuntu">+ getGraphics () : Graphics2d</text>
<text x="978" y="736" style="font:12px Ubuntu">+ repaint () : void</text>
<text x="978" y="750" style="font:12px Ubuntu">+ setTitle (s : string) : void</text>
<text x="978" y="764" style="font:12px Ubuntu">+ addKeyListener (k : keyAdapter) : void</text>
<text x="978" y="778" style="font:12px Ubuntu">+ getInstance () : Window</text>
<text x="978" y="792" style="font:12px Ubuntu">- Window () : void</text>
<text x="978" y="806" style="font:12px Ubuntu">+ setUpdateTimer (t : Timer) : void</text>
<rect x="300" y="260" width="150" height="55" style="fill:rgb(255,247,225);stroke:none" />
<rect x="300" y="260" width="150" height="55" style="fill:none;stroke:rgb(65,65,65);stroke-width:1.2;stroke-linecap:square" />
<text x="348" y="283" style="font:12px Ubuntu">Vector2f</text>
<line x1="300" y1="295" x2="450" y2="295" style="fill:none;stroke:rgb(65,65,65);stroke-width:1.2;stroke-linecap:square" />
<line x1="300" y1="305" x2="450" y2="305" style="fill:none;stroke:rgb(65,65,65);stroke-width:1.2;stroke-linecap:square" />
<rect x="1420" y="260" width="150" height="69" style="fill:rgb(255,247,225);stroke:none" />
<rect x="1420" y="260" width="150" height="69" style="fill:none;stroke:rgb(65,65,65);stroke-width:1.2;stroke-linecap:square" />
<text x="1457" y="279" style="font:11px Ubuntu">&lt;&lt; interface &gt;&gt;</text>
<text x="1473" y="297" style="font:12px Ubuntu">JFrame</text>
<line x1="1420" y1="309" x2="1570" y2="309" style="fill:none;stroke:rgb(65,65,65);stroke-width:1.2;stroke-linecap:square" />
<line x1="1420" y1="319" x2="1570" y2="319" style="fill:none;stroke:rgb(65,65,65);stroke-width:1.2;stroke-linecap:square" />
<rect x="1930" y="220" width="150" height="69" style="fill:rgb(255,247,225);stroke:none" />
<rect x="1930" y="220" width="150" height="69" style="fill:none;stroke:rgb(65,65,65);stroke-width:1.2;stroke-linecap:square" />
<text x="1967" y="239" style="font:11px Ubuntu">&lt;&lt; interface &gt;&gt;</text>
<text x="1985" y="257" style="font:12px Ubuntu">JPanel</text>
<line x1="1930" y1="269" x2="2080" y2="269" style="fill:none;stroke:rgb(65,65,65);stroke-width:1.2;stroke-linecap:square" />
<line x1="1930" y1="279" x2="2080" y2="279" style="fill:none;stroke:rgb(65,65,65);stroke-width:1.2;stroke-linecap:square" />
<rect x="1860" y="410" width="300" height="223" style="fill:rgb(255,247,225);stroke:none" />
<rect x="1860" y="410" width="300" height="223" style="fill:none;stroke:rgb(65,65,65);stroke-width:1.2;stroke-linecap:square" />
<text x="1967" y="433" style="font:12px Ubuntu">RenderCanvas</text>
<line x1="1860" y1="445" x2="2160" y2="445" style="fill:none;stroke:rgb(65,65,65);stroke-width:1.2;stroke-linecap:square" />
<text x="1868" y="460" style="font:12px Ubuntu">- BACKGROUND_COLOR : Color {const}</text>
<text x="1868" y="474" style="font:12px Ubuntu">- _width : int</text>
<text x="1868" y="488" style="font:12px Ubuntu">- _height : int</text>
<text x="1868" y="502" style="font:12px Ubuntu">- _g2d : intGraphics2d</text>
<text x="1868" y="516" style="font:12px Ubuntu">- _img : BufferedImage</text>
<line x1="1860" y1="525" x2="2160" y2="525" style="fill:none;stroke:rgb(65,65,65);stroke-width:1.2;stroke-linecap:square" />
<text x="1868" y="540" style="font:12px Ubuntu">+ resizeRender (h : int, w : int) : void</text>
<text x="1868" y="554" style="font:12px Ubuntu">+ getPreferredSize () : Dimension</text>
<text x="1868" y="568" style="font:12px Ubuntu">+ getMinimumSize () : Dimension</text>
<text x="1868" y="582" style="font:12px Ubuntu">+ getMaximumSize () : Dimension</text>
<text x="1868" y="596" style="font:12px Ubuntu"># paintComponent (p : Graphics) : void</text>
<text x="1868" y="610" style="font:12px Ubuntu">+ getBufferGraphics () : Graphics2D</text>
<text x="1868" y="624" style="font:12px Ubuntu">+ clearBuffer () : void</text>
<rect x="1400" y="420" width="270" height="125" style="fill:rgb(255,247,225);stroke:none" />
<rect x="1400" y="420" width="270" height="125" style="fill:none;stroke:rgb(65,65,65);stroke-width:1.2;stroke-linecap:square" />
<text x="1493" y="443" style="font:12px Ubuntu">SwingWindow</text>
<line x1="1400" y1="455" x2="1670" y2="455" style="fill:none;stroke:rgb(65,65,65);stroke-width:1.2;stroke-linecap:square" />
<text x="1408" y="470" style="font:12px Ubuntu">- _updateTimer : Timer</text>
<text x="1408" y="484" style="font:12px Ubuntu">- defaultSize : int {const}</text>
<line x1="1400" y1="493" x2="1670" y2="493" style="fill:none;stroke:rgb(65,65,65);stroke-width:1.2;stroke-linecap:square" />
<text x="1408" y="508" style="font:12px Ubuntu">+ getCanvas () : RenderCanvas</text>
<text x="1408" y="522" style="font:12px Ubuntu">- resizeCanavas () : void</text>
<text x="1408" y="536" style="font:12px Ubuntu">+ setUpdateTimer (u : Timer) : void</text>
<text x="665" y="452" style="font:14px Ubuntu">bouncer</text>
<text x="597" y="462" style="font:14px Ubuntu">*</text>
<text x="684" y="412" style="font:14px Ubuntu">1</text>
<text x="951" y="399" style="font:14px Ubuntu">window</text>
<text x="897" y="409" style="font:14px Ubuntu">1</text>
<text x="957" y="402" style="font:14px Ubuntu">1</text>
<text x="1847" y="632" style="font:14px Ubuntu">1</text>
<text x="1235" y="892" style="font:14px Ubuntu">*</text>
<text x="1675" y="442" style="font:14px Ubuntu">1</text>
<text x="1847" y="442" style="font:14px Ubuntu">1</text>
<text x="1215" y="442" style="font:14px Ubuntu">1</text>
<text x="1387" y="442" style="font:14px Ubuntu">1</text>
<path d="M280,180 L280,210 L352,210 Q382,210 382,180 L280,180" style="fill:rgb(255,247,225);stroke:none" />
<path d="M280,180 L280,210 L352,210 Q382,210 382,180 L280,180" style="fill:none;stroke:rgb(65,65,65);stroke-width:1.2;stroke-linecap:square" />
<text x="285" y="202" style="font:16px Ubuntu">Bouncable</text>
<rect x="280" y="180" width="1899" height="1171" style="fill:none;stroke:rgb(64,64,64);stroke-linecap:square" />
</svg>
